<svg width="30" height="31" viewBox="0 0 30 31" fill="none" xmlns="http://www.w3.org/2000/svg">
<path d="M21.2227 6.72559C19.5615 5.10254 17.3525 4.20898 15 4.20898C12.6475 4.20898 10.4385 5.10254 8.77734 6.72266C7.12207 8.33984 6.21094 10.4844 6.21094 12.7666C6.21094 19.8359 13.0693 24.6963 15 25.9238C16.9307 24.6963 23.7891 19.8359 23.7891 12.7666C23.7891 10.4844 22.8779 8.33984 21.2227 6.72559ZM15 18.1543C12.1523 18.1543 9.84375 15.8457 9.84375 12.998C9.84375 10.1504 12.1523 7.8418 15 7.8418C17.8477 7.8418 20.1562 10.1504 20.1562 12.998C20.1562 15.8457 17.8477 18.1543 15 18.1543Z" fill="#FDDBEA"/>
<path d="M15 7.8418C12.1523 7.8418 9.84375 10.1504 9.84375 12.998C9.84375 15.8457 12.1523 18.1543 15 18.1543C17.8477 18.1543 20.1562 15.8457 20.1562 12.998C20.1562 10.1504 17.8477 7.8418 15 7.8418ZM17.3203 15.3184C17.016 15.6236 16.6543 15.8656 16.2561 16.0305C15.8579 16.1954 15.431 16.28 15 16.2793C14.124 16.2793 13.3008 15.9365 12.6797 15.3184C12.3745 15.014 12.1325 14.6524 11.9675 14.2541C11.8026 13.8559 11.7181 13.4291 11.7188 12.998C11.7187 12.1221 12.0615 11.2988 12.6797 10.6777C13.3008 10.0566 14.124 9.7168 15 9.7168C15.876 9.7168 16.6992 10.0566 17.3203 10.6777C17.9414 11.2988 18.2812 12.1221 18.2812 12.998C18.2812 13.874 17.9414 14.6973 17.3203 15.3184Z" fill="#F1287E"/>
<path d="M25.0371 8.60645C24.4856 7.33461 23.6903 6.18307 22.6963 5.2168C21.699 4.2418 20.5233 3.46794 19.2334 2.9375C17.8916 2.38086 16.4678 2.09961 15 2.09961C13.5322 2.09961 12.1084 2.38086 10.7666 2.93457C9.46875 3.4707 8.30566 4.23828 7.30371 5.21387C6.31032 6.18068 5.51518 7.33209 4.96289 8.60352C4.3916 9.92188 4.10156 11.3223 4.10156 12.7637C4.10156 14.832 4.59668 16.8916 5.56934 18.8779C6.35156 20.4746 7.44434 22.0303 8.82129 23.5098C11.1738 26.0352 13.6406 27.5791 14.3408 27.9922C14.5396 28.1096 14.7662 28.1713 14.9971 28.1709C15.2256 28.1709 15.4512 28.1123 15.6533 27.9922C16.3535 27.5791 18.8203 26.0352 21.1729 23.5098C22.5498 22.0332 23.6426 20.4746 24.4248 18.8779C25.4033 16.8945 25.8984 14.8379 25.8984 12.7666C25.8984 11.3252 25.6084 9.9248 25.0371 8.60645ZM15 25.9238C13.0693 24.6963 6.21094 19.8359 6.21094 12.7666C6.21094 10.4844 7.12207 8.33984 8.77734 6.72266C10.4385 5.10254 12.6475 4.20898 15 4.20898C17.3525 4.20898 19.5615 5.10254 21.2227 6.72559C22.8779 8.33984 23.7891 10.4844 23.7891 12.7666C23.7891 19.8359 16.9307 24.6963 15 25.9238Z" fill="#F1287E"/>
</svg>
