<svg width="10" height="12" viewBox="0 0 10 12" fill="none" xmlns="http://www.w3.org/2000/svg">
<path d="M9.375 5.60742H8.44531V2.54492C8.44531 1.57832 7.66191 0.794922 6.69531 0.794922H3.30469C2.33809 0.794922 1.55469 1.57832 1.55469 2.54492V5.60742H0.625C0.383008 5.60742 0.1875 5.80293 0.1875 6.04492V11.2949C0.1875 11.5369 0.383008 11.7324 0.625 11.7324H9.375C9.61699 11.7324 9.8125 11.5369 9.8125 11.2949V6.04492C9.8125 5.80293 9.61699 5.60742 9.375 5.60742ZM2.53906 2.54492C2.53906 2.12246 2.88223 1.7793 3.30469 1.7793H6.69531C7.11777 1.7793 7.46094 2.12246 7.46094 2.54492V5.60742H2.53906V2.54492ZM8.82812 10.748H1.17188V6.5918H8.82812V10.748ZM4.61719 8.84766V9.57227C4.61719 9.63242 4.66641 9.68164 4.72656 9.68164H5.27344C5.33359 9.68164 5.38281 9.63242 5.38281 9.57227V8.84766C5.49567 8.76663 5.57991 8.65188 5.6234 8.51993C5.66689 8.38799 5.66739 8.24564 5.62483 8.11339C5.58227 7.98113 5.49885 7.8658 5.38656 7.78398C5.27428 7.70216 5.13893 7.65807 5 7.65807C4.86107 7.65807 4.72572 7.70216 4.61344 7.78398C4.50115 7.8658 4.41773 7.98113 4.37517 8.11339C4.33261 8.24564 4.33311 8.38799 4.3766 8.51993C4.42009 8.65188 4.50433 8.76663 4.61719 8.84766Z" fill="white"/>
</svg>
