<svg width="12" height="14" viewBox="0 0 12 14" fill="none" xmlns="http://www.w3.org/2000/svg">
<path d="M11 0.75H9.3125V0.125C9.3125 0.05625 9.25625 0 9.1875 0H8.3125C8.24375 0 8.1875 0.05625 8.1875 0.125V0.75H5.8125V0.125C5.8125 0.05625 5.75625 0 5.6875 0H4.8125C4.74375 0 4.6875 0.05625 4.6875 0.125V0.75H3C2.72344 0.75 2.5 0.973437 2.5 1.25V3.125H1C0.723437 3.125 0.5 3.34844 0.5 3.625V13.5C0.5 13.7766 0.723437 14 1 14H9C9.27656 14 9.5 13.7766 9.5 13.5V12H11C11.2766 12 11.5 11.7766 11.5 11.5V1.25C11.5 0.973437 11.2766 0.75 11 0.75ZM8.375 12.875H1.625V4.25H5.03125V6.96875C5.03125 7.31406 5.31094 7.59375 5.65625 7.59375H8.375V12.875ZM8.375 6.59375H6.03125V4.25H6.03438L8.375 6.59062V6.59375ZM10.375 10.875H9.5V6.125L6.5 3.125H3.625V1.875H4.6875V2.375C4.6875 2.44375 4.74375 2.5 4.8125 2.5H5.6875C5.75625 2.5 5.8125 2.44375 5.8125 2.375V1.875H8.1875V2.375C8.1875 2.44375 8.24375 2.5 8.3125 2.5H9.1875C9.25625 2.5 9.3125 2.44375 9.3125 2.375V1.875H10.375V10.875Z" fill="white"/>
</svg>
