<svg width="12" height="14" viewBox="0 0 12 14" fill="none" xmlns="http://www.w3.org/2000/svg">
<path d="M5.55002 11.3487L11.4594 5.4378C11.486 5.41124 11.4985 5.3753 11.4953 5.33936L11.0969 0.629987C11.086 0.508112 10.9906 0.412799 10.8688 0.401862L6.1594 0.00498693C6.12346 0.00186193 6.08596 0.0143619 6.06096 0.0409244L0.151585 5.9503C0.128322 5.97379 0.115273 6.00552 0.115273 6.03858C0.115273 6.07164 0.128322 6.10337 0.151585 6.12686L5.37346 11.3487C5.4219 11.3987 5.50159 11.3987 5.55002 11.3487ZM6.52815 1.16592L10.0375 1.4628L10.3344 4.97217L5.46096 9.84405L1.65471 6.03936L6.52815 1.16592ZM7.46815 4.07577C7.5378 4.14541 7.62049 4.20065 7.71149 4.23834C7.80249 4.27602 7.90002 4.29541 7.99852 4.29541C8.09701 4.2954 8.19454 4.27599 8.28554 4.23829C8.37653 4.20059 8.45921 4.14534 8.52885 4.07569C8.59849 4.00604 8.65374 3.92335 8.69142 3.83235C8.72911 3.74135 8.7485 3.64382 8.74849 3.54532C8.74848 3.44683 8.72908 3.3493 8.69138 3.2583C8.65368 3.16731 8.59843 3.08463 8.52877 3.01499C8.45912 2.94535 8.37644 2.8901 8.28543 2.85242C8.19443 2.81473 8.0969 2.79534 7.99841 2.79535C7.89991 2.79535 7.80238 2.81476 7.71139 2.85246C7.62039 2.89016 7.53771 2.94541 7.46807 3.01507C7.39843 3.08472 7.34319 3.1674 7.3055 3.2584C7.26782 3.3494 7.24842 3.44694 7.24843 3.54543C7.24844 3.64393 7.26785 3.74146 7.30554 3.83245C7.34324 3.92345 7.3985 4.00613 7.46815 4.07577ZM11.9016 7.43467L11.2828 6.81749C11.2593 6.79422 11.2276 6.78117 11.1946 6.78117C11.1615 6.78117 11.1298 6.79422 11.1063 6.81749L5.45002 12.4628L1.73752 8.75967C1.71403 8.73641 1.6823 8.72336 1.64924 8.72336C1.61618 8.72336 1.58445 8.73641 1.56096 8.75967L0.94221 9.37686C0.918947 9.40036 0.905898 9.43208 0.905898 9.46514C0.905898 9.49821 0.918947 9.52993 0.94221 9.55342L4.74221 13.3472L5.36096 13.9644C5.4094 14.0128 5.48909 14.0128 5.53752 13.9644L11.9016 7.61124C11.95 7.5628 11.95 7.48311 11.9016 7.43467Z" fill="white"/>
</svg>
