<svg width="16" height="15" viewBox="0 0 16 15" fill="none" xmlns="http://www.w3.org/2000/svg">
<path d="M14.9891 13.677L10.424 9.11196C11.1324 8.19614 11.5156 7.07642 11.5156 5.89868C11.5156 4.48892 10.9654 3.16704 9.97051 2.17036C8.97559 1.17368 7.6502 0.625244 6.24219 0.625244C4.83418 0.625244 3.50879 1.17544 2.51387 2.17036C1.51719 3.16528 0.96875 4.48892 0.96875 5.89868C0.96875 7.30669 1.51895 8.63208 2.51387 9.627C3.50879 10.6237 4.83242 11.1721 6.24219 11.1721C7.41992 11.1721 8.53789 10.7889 9.45371 10.0823L14.0188 14.6456C14.0321 14.6589 14.048 14.6696 14.0655 14.6768C14.083 14.6841 14.1018 14.6878 14.1207 14.6878C14.1396 14.6878 14.1584 14.6841 14.1759 14.6768C14.1934 14.6696 14.2093 14.6589 14.2227 14.6456L14.9891 13.8809C15.0025 13.8675 15.0131 13.8516 15.0203 13.8341C15.0276 13.8166 15.0313 13.7979 15.0313 13.779C15.0313 13.76 15.0276 13.7413 15.0203 13.7238C15.0131 13.7063 15.0025 13.6904 14.9891 13.677ZM9.02656 8.68306C8.28125 9.42661 7.29336 9.83618 6.24219 9.83618C5.19102 9.83618 4.20313 9.42661 3.45781 8.68306C2.71426 7.93774 2.30469 6.94985 2.30469 5.89868C2.30469 4.84751 2.71426 3.85786 3.45781 3.11431C4.20313 2.37075 5.19102 1.96118 6.24219 1.96118C7.29336 1.96118 8.28301 2.36899 9.02656 3.11431C9.77012 3.85962 10.1797 4.84751 10.1797 5.89868C10.1797 6.94985 9.77012 7.9395 9.02656 8.68306Z" fill="#BFBFBF"/>
</svg>
